<?xml version="1.0" standalone="no"?>
<!DOCTYPE svg PUBLIC "-//W3C//DTD SVG 20010904//EN"
 "http://www.w3.org/TR/2001/REC-SVG-20010904/DTD/svg10.dtd">
<svg version="1.0" xmlns="http://www.w3.org/2000/svg"
 width="720.000000pt" height="720.000000pt" viewBox="0 0 720.000000 720.000000"
 preserveAspectRatio="xMidYMid meet">
<metadata>
Created by potrace 1.16, written by Peter Selinger 2001-2019
</metadata>
<g transform="translate(0.000000,720.000000) scale(0.100000,-0.100000)"
fill="#000000" stroke="none">
<path d="M2971 5040 l-145 -160 -283 0 c-264 0 -286 -1 -340 -22 -77 -29 -152
-104 -181 -181 -22 -58 -22 -58 -22 -1077 0 -1019 0 -1019 22 -1077 29 -77
104 -152 181 -181 l58 -22 1339 0 1339 0 58 22 c77 29 152 104 181 181 22 58
22 58 22 1077 0 1019 0 1019 -22 1077 -29 77 -104 152 -181 181 -54 21 -76 22
-340 22 l-283 0 -145 160 -144 160 -485 0 -485 0 -144 -160z m832 -669 c42
-11 119 -42 170 -68 75 -38 109 -64 187 -143 79 -78 105 -112 143 -187 69
-135 90 -220 90 -373 0 -153 -21 -238 -90 -373 -38 -75 -64 -109 -143 -187
-78 -79 -112 -105 -187 -143 -135 -69 -220 -90 -373 -90 -153 0 -238 21 -373
90 -75 38 -109 64 -187 143 -79 78 -105 112 -143 187 -69 135 -90 220 -90 373
0 153 21 238 90 373 38 75 64 109 143 187 78 79 111 104 185 142 50 25 107 51
129 58 135 43 307 47 449 11z"/>
<path d="M3448 4091 c-115 -37 -213 -112 -280 -215 -103 -159 -106 -384 -7
-541 99 -158 254 -245 439 -245 183 0 330 80 431 234 107 163 107 389 0 552
-69 105 -165 179 -280 214 -83 26 -223 26 -303 1z"/>
</g>
</svg>
